<svg width="44" height="42" viewBox="0 0 44 42" fill="none" xmlns="http://www.w3.org/2000/svg">
<path d="M22.0001 39.2946C11.577 39.2946 3.08984 31.0838 3.08984 21C3.08984 10.9163 11.577 2.70544 22.0001 2.70544C32.4232 2.70544 40.9103 10.9163 40.9103 21C40.9103 24.7271 39.7565 28.3027 37.5858 31.3676C37.2925 31.7649 36.8232 32.0108 36.3147 32.0108C36.0018 32.0108 35.7085 31.9163 35.4347 31.746C34.7307 31.273 34.5547 30.346 35.0436 29.6838C36.8623 27.1298 37.8205 24.1217 37.8205 21.019C37.8205 12.5622 30.7218 5.69463 21.9805 5.69463C13.2392 5.69463 6.14051 12.5622 6.14051 21.019C6.14051 29.4757 13.2392 36.3433 21.9805 36.3433C25.5592 36.3433 28.9227 35.2271 31.7387 33.0892C32.0125 32.8811 32.345 32.7676 32.6774 32.7676C33.1467 32.7676 33.5965 32.9757 33.8898 33.3352C34.1441 33.6568 34.2614 34.0352 34.2027 34.4325C34.1441 34.8298 33.9485 35.1703 33.6161 35.4163C30.2916 37.9514 26.2632 39.2946 22.0001 39.2946Z" fill="#9EACC7"/>
<path d="M27.4169 30.5729C27.1627 30.5729 26.9085 30.5162 26.6934 30.4027L22 28.0189L17.3067 30.4027C16.7787 30.6675 16.1334 30.6297 15.664 30.2892C15.1751 29.9486 14.9405 29.3811 15.0383 28.8135L15.9378 23.7621L12.144 20.1865C11.7138 19.7892 11.5574 19.1838 11.7529 18.6351C11.9485 18.0865 12.4178 17.6892 13.024 17.6135L18.2649 16.8756L20.6116 12.2784C20.8658 11.7675 21.4134 11.427 22.0196 11.427C22.6258 11.427 23.1538 11.7486 23.4276 12.2784L25.7743 16.8756L31.0151 17.6135C31.6018 17.6892 32.0907 18.0865 32.2863 18.6351C32.4818 19.1838 32.3254 19.7892 31.8951 20.1865L28.1014 23.7621L29.0009 28.8135C29.0987 29.3811 28.864 29.9486 28.3751 30.2892C28.0623 30.4784 27.7494 30.5729 27.4169 30.5729ZM22 24.8027C22.2543 24.8027 22.5085 24.8594 22.7236 24.9729L25.344 26.2973L24.8356 23.4784C24.7574 22.9865 24.9138 22.4946 25.2854 22.1351L27.3974 20.1486L24.4836 19.7324C23.9751 19.6567 23.5254 19.354 23.3103 18.9L22 16.3459L20.6898 18.9C20.4551 19.354 20.0249 19.6567 19.5165 19.7324L16.6027 20.1486L18.7147 22.1351C19.0863 22.4756 19.2427 22.9865 19.1645 23.4784L18.656 26.2973L21.2765 24.9729C21.4916 24.8594 21.7458 24.8027 22 24.8027Z" fill="#1D3A72"/>
<path d="M42.4356 11.1432C41.5752 11.1432 40.8712 10.4622 40.8712 9.62973V4.16216C40.8712 3.53784 40.3432 3.02703 39.6978 3.02703H34.1245C33.2641 3.02703 32.5601 2.34595 32.5601 1.51351C32.5601 0.681081 33.2641 0 34.1245 0H39.6978C42.0641 0 44.0001 1.87297 44.0001 4.16216V9.62973C44.0001 10.4622 43.2961 11.1432 42.4356 11.1432Z" fill="#9EACC7"/>
<path d="M1.56444 11.1432C0.704 11.1432 0 10.4622 0 9.62973V4.16216C0 1.87297 1.936 0 4.30222 0H9.87556C10.736 0 11.44 0.681081 11.44 1.51351C11.44 2.34595 10.736 3.02703 9.87556 3.02703H4.30222C3.65689 3.02703 3.12889 3.53784 3.12889 4.16216V9.62973C3.12889 10.4622 2.42489 11.1432 1.56444 11.1432Z" fill="#9EACC7"/>
<path d="M39.6978 42.0001H34.1245C33.2641 42.0001 32.5601 41.319 32.5601 40.4865C32.5601 39.6541 33.2641 38.973 34.1245 38.973H39.6978C40.3432 38.973 40.8712 38.4622 40.8712 37.8379V32.3703C40.8712 31.5379 41.5752 30.8568 42.4356 30.8568C43.2961 30.8568 44.0001 31.5379 44.0001 32.3703V37.8379C44.0001 40.146 42.0641 42.0001 39.6978 42.0001Z" fill="#9EACC7"/>
<path d="M9.87556 42.0001H4.30222C1.936 42.0001 0 40.1271 0 37.8379V32.3703C0 31.5379 0.704 30.8568 1.56444 30.8568C2.42489 30.8568 3.12889 31.5379 3.12889 32.3703V37.8379C3.12889 38.4622 3.65689 38.973 4.30222 38.973H9.87556C10.736 38.973 11.44 39.6541 11.44 40.4865C11.44 41.319 10.736 42.0001 9.87556 42.0001Z" fill="#9EACC7"/>
</svg>
