<svg width="47" height="42" viewBox="0 0 47 42" fill="none" xmlns="http://www.w3.org/2000/svg">
<path d="M2 8C2 5.17157 2 3.75736 2.87868 2.87868C3.75736 2 5.17157 2 8 2H39C41.8284 2 43.2426 2 44.1213 2.87868C45 3.75736 45 5.17157 45 8V14.4583C45 15.2003 45 15.5713 44.8128 15.8325C44.7492 15.9213 44.6713 15.9992 44.5825 16.0628C44.3213 16.25 43.9503 16.25 43.2083 16.25H42.5833C40.9503 16.25 40.1338 16.25 39.5065 16.5594C38.9142 16.8515 38.4348 17.3308 38.1427 17.9231C37.8333 18.5505 37.8333 19.367 37.8333 21V21C37.8333 22.633 37.8333 23.4495 38.1427 24.0769C38.4348 24.6692 38.9142 25.1485 39.5065 25.4406C40.1338 25.75 40.9503 25.75 42.5833 25.75H43.2083C43.9503 25.75 44.3213 25.75 44.5825 25.9372C44.6713 26.0008 44.7492 26.0787 44.8128 26.1675C45 26.4287 45 26.7997 45 27.5417V34C45 36.8284 45 38.2426 44.1213 39.1213C43.2426 40 41.8284 40 39 40H8C5.17157 40 3.75736 40 2.87868 39.1213C2 38.2426 2 36.8284 2 34V27.5417C2 26.7997 2 26.4287 2.18715 26.1675C2.25083 26.0787 2.32866 26.0008 2.41752 25.9372C2.67869 25.75 3.04969 25.75 3.79167 25.75H4.41667C6.04967 25.75 6.86617 25.75 7.49353 25.4406C8.08583 25.1485 8.5652 24.6692 8.85728 24.0769C9.16667 23.4495 9.16667 22.633 9.16667 21V21C9.16667 19.367 9.16667 18.5505 8.85728 17.9231C8.5652 17.3308 8.08583 16.8515 7.49353 16.5594C6.86617 16.25 6.04967 16.25 4.41667 16.25H3.79167C3.04968 16.25 2.67869 16.25 2.41752 16.0628C2.32866 15.9992 2.25083 15.9213 2.18715 15.8325C2 15.5713 2 15.2003 2 14.4583V8Z" stroke="#9EACC7" stroke-width="3"/>
<path d="M22.8919 17.7214C23.3122 16.6339 23.5224 16.0902 23.8638 16.0149C23.9536 15.995 24.0464 15.995 24.1362 16.0149C24.4776 16.0902 24.6878 16.6339 25.1081 17.7214C25.3471 18.3398 25.4666 18.649 25.6903 18.8593C25.753 18.9183 25.8211 18.9708 25.8936 19.0162C26.1521 19.1778 26.4747 19.2078 27.12 19.2678C28.2125 19.3693 28.7587 19.4201 28.9255 19.7433C28.96 19.8102 28.9835 19.8827 28.995 19.9577C29.0503 20.3198 28.6487 20.6989 27.8456 21.4572L27.6226 21.6677C27.2472 22.0222 27.0594 22.1995 26.9508 22.4207C26.8857 22.5534 26.842 22.6963 26.8216 22.8437C26.7874 23.0894 26.8424 23.3465 26.9524 23.8608L26.9916 24.0445C27.1888 24.9668 27.2874 25.4279 27.1643 25.6545C27.0538 25.8581 26.8502 25.9885 26.6252 25.9996C26.3748 26.012 26.022 25.7137 25.3163 25.1169C24.8514 24.7238 24.6189 24.5272 24.3609 24.4504C24.125 24.3802 23.875 24.3802 23.6391 24.4504C23.3811 24.5272 23.1486 24.7238 22.6837 25.1169C21.978 25.7137 21.6252 26.012 21.3748 25.9996C21.1498 25.9885 20.9462 25.8581 20.8357 25.6545C20.7126 25.4279 20.8112 24.9668 21.0084 24.0445L21.0476 23.8608C21.1576 23.3465 21.2126 23.0894 21.1784 22.8437C21.158 22.6963 21.1143 22.5534 21.0492 22.4207C20.9406 22.1995 20.7528 22.0222 20.3774 21.6677L20.1544 21.4572C19.3513 20.6989 18.9497 20.3198 19.005 19.9577C19.0165 19.8827 19.04 19.8102 19.0745 19.7433C19.2413 19.4201 19.7875 19.3693 20.88 19.2678C21.5253 19.2078 21.8479 19.1778 22.1064 19.0162C22.1789 18.9708 22.247 18.9183 22.3097 18.8593C22.5334 18.649 22.6529 18.3398 22.8919 17.7214Z" fill="#1D3A72" stroke="#1D3A72"/>
</svg>
